<?xml version="1.0" encoding="UTF-8" standalone="no"?>
<!-- Created with Inkscape (http://www.inkscape.org/) -->

<svg
   width="500"
   height="500"
   viewBox="0 0 132.29166 132.29167"
   version="1.1"
   id="svg1"
   sodipodi:docname="Favicon.svg"
   inkscape:version="1.4.3 (0d15f75, 2025-12-25)"
   xmlns:inkscape="http://www.inkscape.org/namespaces/inkscape"
   xmlns:sodipodi="http://sodipodi.sourceforge.net/DTD/sodipodi-0.dtd"
   xmlns="http://www.w3.org/2000/svg"
   xmlns:svg="http://www.w3.org/2000/svg">
  <sodipodi:namedview
     id="namedview1"
     pagecolor="#ffffff"
     bordercolor="#000000"
     borderopacity="0.25"
     inkscape:showpageshadow="2"
     inkscape:pageopacity="0.0"
     inkscape:pagecheckerboard="0"
     inkscape:deskcolor="#d1d1d1"
     inkscape:document-units="mm"
     inkscape:zoom="1.5910634"
     inkscape:cx="243.86206"
     inkscape:cy="269.31673"
     inkscape:window-width="1920"
     inkscape:window-height="1174"
     inkscape:window-x="-11"
     inkscape:window-y="-11"
     inkscape:window-maximized="1"
     inkscape:current-layer="layer1" />
  <defs
     id="defs1">
    <inkscape:path-effect
       effect="spiro"
       id="path-effect12"
       is_visible="true"
       lpeversion="1" />
    <inkscape:path-effect
       effect="spiro"
       id="path-effect16-0"
       is_visible="true"
       lpeversion="1" />
    <inkscape:path-effect
       effect="spiro"
       id="path-effect16-0-5"
       is_visible="true"
       lpeversion="1" />
    <inkscape:path-effect
       effect="spiro"
       id="path-effect24"
       is_visible="true"
       lpeversion="1" />
    <inkscape:path-effect
       effect="spiro"
       id="path-effect24-4"
       is_visible="true"
       lpeversion="1" />
    <inkscape:path-effect
       effect="spiro"
       id="path-effect24-4-1"
       is_visible="true"
       lpeversion="1" />
    <inkscape:path-effect
       effect="spiro"
       id="path-effect24-4-1-6"
       is_visible="true"
       lpeversion="1" />
    <inkscape:path-effect
       effect="spiro"
       id="path-effect12-3"
       is_visible="true"
       lpeversion="1" />
    <inkscape:path-effect
       effect="spiro"
       id="path-effect16-0-6"
       is_visible="true"
       lpeversion="1" />
    <inkscape:path-effect
       effect="spiro"
       id="path-effect16-0-5-4"
       is_visible="true"
       lpeversion="1" />
    <inkscape:path-effect
       effect="spiro"
       id="path-effect24-41"
       is_visible="true"
       lpeversion="1" />
    <inkscape:path-effect
       effect="spiro"
       id="path-effect24-4-9"
       is_visible="true"
       lpeversion="1" />
    <inkscape:path-effect
       effect="spiro"
       id="path-effect24-4-1-5"
       is_visible="true"
       lpeversion="1" />
    <inkscape:path-effect
       effect="spiro"
       id="path-effect24-4-1-6-5"
       is_visible="true"
       lpeversion="1" />
    <inkscape:path-effect
       effect="spiro"
       id="path-effect16-0-9"
       is_visible="true"
       lpeversion="1" />
    <inkscape:path-effect
       effect="spiro"
       id="path-effect29"
       is_visible="true"
       lpeversion="1" />
    <inkscape:path-effect
       effect="spiro"
       id="path-effect24-4-1-3"
       is_visible="true"
       lpeversion="1" />
    <inkscape:path-effect
       effect="spiro"
       id="path-effect24-4-1-3-1"
       is_visible="true"
       lpeversion="1" />
    <inkscape:path-effect
       effect="spiro"
       id="path-effect16-0-7"
       is_visible="true"
       lpeversion="1" />
    <inkscape:path-effect
       effect="spiro"
       id="path-effect29-2"
       is_visible="true"
       lpeversion="1" />
    <inkscape:path-effect
       effect="spiro"
       id="path-effect24-4-1-3-3"
       is_visible="true"
       lpeversion="1" />
    <inkscape:path-effect
       effect="spiro"
       id="path-effect24-4-1-3-2"
       is_visible="true"
       lpeversion="1" />
  </defs>
  <g
     inkscape:label="Layer 1"
     inkscape:groupmode="layer"
     id="layer1">
    <path
       style="fill:#000000;fill-opacity:1;stroke:#000000;stroke-width:7.12857;stroke-linecap:round;stroke-linejoin:round;stroke-dasharray:none;stroke-dashoffset:0;stroke-opacity:1"
       d="m 88.824961,75.709628 -2.70063,6.944453"
       id="path26"
       sodipodi:nodetypes="cc" />
    <text
       xml:space="preserve"
       style="font-style:normal;font-variant:normal;font-weight:bold;font-stretch:normal;font-size:62.87px;font-family:Calibri;-inkscape-font-specification:'Calibri, Bold';font-variant-ligatures:normal;font-variant-caps:normal;font-variant-numeric:normal;font-variant-east-asian:normal;writing-mode:lr-tb;direction:ltr;fill:#000000;stroke-width:0.471525"
       x="42.328026"
       y="90.167206"
       id="text1"><tspan
         sodipodi:role="line"
         id="tspan1"
         style="font-style:normal;font-variant:normal;font-weight:bold;font-stretch:normal;font-size:62.87px;font-family:Calibri;-inkscape-font-specification:'Calibri, Bold';font-variant-ligatures:normal;font-variant-caps:normal;font-variant-numeric:normal;font-variant-east-asian:normal;stroke-width:0.471525"
         x="42.328026"
         y="90.167206">y</tspan></text>
    <path
       style="fill:none;stroke:#000000;stroke-width:2;stroke-linecap:round;stroke-dasharray:none;stroke-dashoffset:0;stroke-opacity:1"
       d="m 93.070425,81.895851 c -1.396519,3.975311 -3.361631,7.750394 -5.816902,11.174574 -1.150717,1.604818 -2.425394,3.14923 -4.008521,4.329612 -1.583128,1.180381 -3.50776,1.980145 -5.482212,1.946519 -1.312684,-0.02236 -2.614911,-0.415932 -3.729063,-1.110413 -1.114152,-0.694482 -2.038442,-1.686569 -2.667065,-2.839162 -0.628623,-1.152594 -0.961787,-2.462565 -0.976854,-3.775354 -0.01507,-1.312788 0.286474,-2.626254 0.857625,-3.808382 1.142303,-2.364255 3.371784,-4.148169 5.897865,-4.864743 2.52608,-0.716574 5.30949,-0.388058 7.659004,0.784266 3.052213,1.522945 5.249893,4.297473 7.827716,6.531346 1.288912,1.116937 2.706333,2.118327 4.303128,2.717565 1.596795,0.599238 3.392854,0.772554 5.013704,0.241823 1.70516,-0.558338 3.10204,-1.859639 4.03067,-3.394881 0.92863,-1.535242 1.4253,-3.295492 1.73092,-5.06352 0.61123,-3.536056 0.52303,-7.273462 2.04531,-10.523069 0.22303,-0.476104 0.47897,-0.936791 0.76538,-1.377685"
       id="path11"
       inkscape:path-effect="#path-effect12-3"
       inkscape:original-d="m 93.070425,81.895851 c -2.14307,3.724857 -3.82691,7.602791 -5.816902,11.174574 -1.989992,3.571782 -6.531258,4.082036 -9.490733,6.276131 -2.959476,2.194094 4.796393,-10.409193 7.041512,-15.613788 2.245119,-5.204597 11.429701,6.327156 17.144548,9.490734 5.71485,3.163578 5.2046,-12.603287 7.8069,-18.98147 2.6023,-6.378181 0.51025,-0.969483 0.76538,-1.377685"
       transform="matrix(1.782142,0,0,1.782142,-110.52889,-48.04944)" />
    <ellipse
       style="fill:#ffffff;fill-opacity:1;stroke:#000000;stroke-width:3.56429;stroke-linecap:round;stroke-dasharray:none;stroke-dashoffset:0;stroke-opacity:1"
       id="path12"
       cx="92.487122"
       cy="69.708313"
       rx="9.5486193"
       ry="9.9344234" />
    <ellipse
       style="fill:#000000;fill-opacity:1;stroke:#000000;stroke-width:0;stroke-linecap:round;stroke-dasharray:none;stroke-dashoffset:0;stroke-opacity:1"
       id="path13"
       cx="92.355042"
       cy="69.407356"
       rx="1.8629429"
       ry="1.8188543" />
    <path
       style="fill:#ffcc00;fill-opacity:1;stroke:#d4aa00;stroke-width:6.57602;stroke-linecap:round;stroke-dasharray:none;stroke-dashoffset:0;stroke-opacity:1"
       d="M 117.92083,124.80963 V 34.478499"
       id="path17"
       sodipodi:nodetypes="cc" />
    <path
       style="fill:#d4aa00;fill-opacity:1;stroke:#d4aa00;stroke-width:6.57602;stroke-linecap:round;stroke-dasharray:none;stroke-dashoffset:0;stroke-opacity:1"
       d="m 71.817068,125.16749 45.944652,0.0118"
       id="path18"
       sodipodi:nodetypes="cc" />
    <path
       style="fill:#ffcc00;fill-opacity:1;stroke:#d4aa00;stroke-width:6.57602;stroke-linecap:round;stroke-dasharray:none;stroke-dashoffset:0;stroke-opacity:1"
       d="M 126.06588,37.774346 67.278535,11.40055"
       id="path19" />
    <path
       style="fill:#ffcc00;fill-opacity:1;stroke:#d4aa00;stroke-width:6.57602;stroke-linecap:round;stroke-dasharray:none;stroke-dashoffset:0;stroke-opacity:1"
       d="M 7.4488379,38.040122 67.072586,11.346018"
       id="path19-2"
       sodipodi:nodetypes="cc" />
    <path
       style="fill:#ffcc00;fill-opacity:1;stroke:#d4aa00;stroke-width:6.57602;stroke-linecap:round;stroke-dasharray:none;stroke-dashoffset:0;stroke-opacity:1"
       d="M 94.413018,22.344642 94.371818,5.2563018"
       id="path20"
       sodipodi:nodetypes="cc" />
    <path
       style="fill:#ffcc00;fill-opacity:1;stroke:#d4aa00;stroke-width:6.57602;stroke-linecap:round;stroke-dasharray:none;stroke-dashoffset:0;stroke-opacity:1"
       d="M 108.5331,28.858713 108.13045,5.3034888"
       id="path21" />
    <path
       style="fill:#ffcc00;fill-opacity:1;stroke:#d4aa00;stroke-width:6.57602;stroke-linecap:round;stroke-dasharray:none;stroke-dashoffset:0;stroke-opacity:1"
       d="m 94.531818,5.1707678 13.506652,0.02338"
       id="path22"
       sodipodi:nodetypes="cc" />
    <path
       style="fill:none;fill-opacity:1;stroke:#000000;stroke-width:0.5;stroke-linecap:round;stroke-linejoin:round;stroke-dasharray:none;stroke-dashoffset:0;stroke-opacity:1"
       d="m 101.60216,71.170065 c 0.24834,1.071349 0.91615,2.039607 1.82937,2.652394 0.91321,0.612786 2.06234,0.863743 3.14788,0.687458 0.99082,-0.160904 1.92077,-0.674 2.58523,-1.426397 0.66447,-0.752396 1.05865,-1.738649 1.09581,-2.741761"
       id="path24"
       inkscape:path-effect="#path-effect24-41"
       inkscape:original-d="m 101.60216,71.170065 c 1.18132,2.427071 3.51027,1.222297 4.97725,3.339852 1.46699,2.117556 2.63502,-2.573612 3.68104,-4.168158"
       transform="matrix(-1.0601645,1.2407089,-1.2809318,-1.0945343,295.06278,15.328135)"
       sodipodi:nodetypes="csc" />
    <path
       style="fill:none;fill-opacity:1;stroke:#ffffff;stroke-width:0.5;stroke-linecap:round;stroke-linejoin:round;stroke-dasharray:none;stroke-dashoffset:0;stroke-opacity:1"
       d="m 101.60216,71.170065 c 0.32745,1.123062 1.00997,2.139742 1.92541,2.868076 0.91544,0.728335 2.0595,1.164912 3.22742,1.231595 1.05862,0.06044 2.13283,-0.181692 3.06315,-0.690453 0.93032,-0.508762 1.71379,-1.282536 2.2341,-2.206445"
       id="path24-6"
       inkscape:path-effect="#path-effect24-4-9"
       inkscape:original-d="m 101.60216,71.170065 c 1.18132,2.427071 3.68585,1.982116 5.15283,4.099671 1.46699,2.117556 4.25123,-1.302352 5.29725,-2.896898"
       transform="matrix(-1.2407089,1.0601645,1.0945343,1.2809318,149.14,-132.70345)"
       sodipodi:nodetypes="csc" />
    <path
       style="fill:none;fill-opacity:1;stroke:#000000;stroke-width:2;stroke-linecap:round;stroke-dasharray:none;stroke-dashoffset:0;stroke-opacity:1"
       d="m 86.513147,44.526935 c -0.266954,-1.21519 -0.735739,-2.385794 -1.381341,-3.449349 -1.044596,-1.720853 -2.525277,-3.130379 -3.722621,-4.748676 -0.598672,-0.809149 -1.129551,-1.677367 -1.476241,-2.62232 -0.34669,-0.944952 -0.50378,-1.972394 -0.348961,-2.966959 0.197313,-1.267547 0.915365,-2.446029 1.951339,-3.202578 1.035973,-0.756549 2.377094,-1.081838 3.644557,-0.883986"
       id="path15-4"
       inkscape:path-effect="#path-effect16-0-9"
       inkscape:original-d="m 86.513147,44.526935 c -0.07708,2.961884 0.736755,10.93739 -1.381341,-3.449349 -0.85083,-5.779088 -4.988576,-7.686044 -5.547823,-10.337955 -0.559247,-2.651914 3.936194,-2.210383 5.595896,-4.086564"
       transform="matrix(-1.7507295,0,0,1.7507295,218.85429,-16.416117)"
       sodipodi:nodetypes="cssc" />
    <path
       style="fill:#000000;fill-opacity:1;stroke:#000000;stroke-width:0.4;stroke-linecap:round;stroke-linejoin:round;stroke-dasharray:none;stroke-dashoffset:0;stroke-opacity:1"
       d="m 103.62147,44.193325 c 0.89478,0.370874 1.59213,1.186415 1.81955,2.12794 0.11101,0.459577 0.11098,0.961023 -0.0925,1.38779 -0.1283,0.269092 -0.3299,0.495311 -0.53127,0.71514 -0.20136,0.219828 -0.40759,0.440576 -0.54812,0.703487 -0.18775,0.351251 -0.24642,0.754432 -0.32009,1.145842 -0.0737,0.39141 -0.1719,0.793942 -0.42007,1.105458 -0.26052,0.327027 -0.68159,0.521964 -1.09916,0.500531 -0.20878,-0.01072 -0.41485,-0.07322 -0.5938,-0.181292 -0.17896,-0.108071 -0.33038,-0.261591 -0.43498,-0.442599 -0.17059,-0.295202 -0.21128,-0.646623 -0.22428,-0.98732 -0.013,-0.340697 -0.002,-0.686238 -0.0841,-1.017261 -0.098,-0.397427 -0.32321,-0.750478 -0.55798,-1.085802 -0.23477,-0.335323 -0.4851,-0.665229 -0.644773,-1.042141 -0.208677,-0.492582 -0.250445,-1.054149 -0.116934,-1.572182 0.133511,-0.518033 0.441507,-0.989456 0.862277,-1.319813 0.42077,-0.330357 0.95182,-0.517686 1.48673,-0.524453 0.53492,-0.0068 1.07054,0.167068 1.49953,0.486675 z"
       id="path28"
       inkscape:path-effect="#path-effect29"
       inkscape:original-d="m 103.62147,44.193325 c 1.24387,-0.976591 1.21303,1.418627 1.81955,2.12794 0.60651,0.709316 -0.072,0.884073 -0.0925,1.38779 -0.0206,0.503714 -0.71959,0.97659 -1.07939,1.418627 -0.3598,0.442034 -0.48316,1.490586 -0.74016,2.2513 -0.25699,0.760711 -1.4289,-0.102799 -2.12794,-0.12336 -0.69903,-0.02056 -0.17475,-1.295267 -0.30839,-2.004581 -0.13364,-0.709313 -0.8224,-1.439188 -1.202753,-2.127943 -0.380357,-0.688753 2.487743,-1.953181 3.731603,-2.929773 z"
       transform="matrix(0.3045747,-1.3540614,1.209076,0.34109751,-21.620751,151.7429)" />
    <path
       style="fill:none;fill-opacity:1;stroke:#ffffff;stroke-width:1.70718;stroke-linecap:round;stroke-linejoin:round;stroke-dasharray:none;stroke-dashoffset:0;stroke-opacity:1"
       d="m 103.88785,63.216639 c -0.52073,1.848991 -0.5386,3.836995 -0.0512,5.695045 0.48742,1.85805 1.47885,3.581285 2.84016,4.936561 1.54897,1.542106 3.57415,2.599112 5.725,2.988052 2.15084,0.38894 4.41794,0.108116 6.40888,-0.793863"
       id="path24-6-4-6"
       inkscape:path-effect="#path-effect24-4-1-3"
       inkscape:original-d="m 103.88785,63.216639 c 1.18132,2.427071 1.32201,8.514051 2.78899,10.631606 1.46699,2.117556 11.08786,3.788735 12.13388,2.194189"
       transform="matrix(-0.38296049,-0.29984073,0.09702088,-0.51527198,113.67467,105.72544)"
       sodipodi:nodetypes="csc" />
    <path
       style="fill:none;fill-opacity:1;stroke:#ffffff;stroke-width:0.969958;stroke-linecap:round;stroke-linejoin:round;stroke-dasharray:none;stroke-dashoffset:0;stroke-opacity:1"
       d="m 103.88785,63.216639 c -0.52073,1.848991 -0.5386,3.836995 -0.0512,5.695045 0.48742,1.85805 1.47885,3.581285 2.84016,4.936561 1.54897,1.542106 3.57415,2.599112 5.725,2.988052 2.15084,0.38894 4.41794,0.108116 6.40888,-0.793863"
       id="path24-6-4-6-1"
       inkscape:path-effect="#path-effect24-4-1-3-1"
       inkscape:original-d="m 103.88785,63.216639 c 1.18132,2.427071 1.32201,8.514051 2.78899,10.631606 1.46699,2.117556 11.08786,3.788735 12.13388,2.194189"
       transform="matrix(0.80019944,0.58817153,-0.15736348,1.0160562,-39.262534,-93.341057)"
       sodipodi:nodetypes="csc" />
    <path
       style="fill:none;fill-opacity:1;stroke:#000000;stroke-width:2;stroke-linecap:round;stroke-dasharray:none;stroke-dashoffset:0;stroke-opacity:1"
       d="m 86.513147,44.526935 c -0.266954,-1.21519 -0.735739,-2.385794 -1.381341,-3.449349 -1.044596,-1.720853 -2.525277,-3.130379 -3.722621,-4.748676 -0.598672,-0.809149 -1.129551,-1.677367 -1.476241,-2.62232 -0.34669,-0.944952 -0.50378,-1.972394 -0.348961,-2.966959 0.197313,-1.267547 0.915365,-2.446029 1.951339,-3.202578 1.035973,-0.756549 2.377094,-1.081838 3.644557,-0.883986"
       id="path15-4-85"
       inkscape:path-effect="#path-effect16-0-7"
       inkscape:original-d="m 86.513147,44.526935 c -0.07708,2.961884 0.736755,10.93739 -1.381341,-3.449349 -0.85083,-5.779088 -4.988576,-7.686044 -5.547823,-10.337955 -0.559247,-2.651914 3.936194,-2.210383 5.595896,-4.086564"
       transform="matrix(1.7507295,0,0,1.7507295,-103.78831,-15.80798)"
       sodipodi:nodetypes="cssc" />
    <path
       style="fill:#000000;fill-opacity:1;stroke:#000000;stroke-width:0.4;stroke-linecap:round;stroke-linejoin:round;stroke-dasharray:none;stroke-dashoffset:0;stroke-opacity:1"
       d="m 103.62147,44.193325 c 0.89478,0.370874 1.59213,1.186415 1.81955,2.12794 0.11101,0.459577 0.11098,0.961023 -0.0925,1.38779 -0.1283,0.269092 -0.3299,0.495311 -0.53127,0.71514 -0.20136,0.219828 -0.40759,0.440576 -0.54812,0.703487 -0.18775,0.351251 -0.24642,0.754432 -0.32009,1.145842 -0.0737,0.39141 -0.1719,0.793942 -0.42007,1.105458 -0.26052,0.327027 -0.68159,0.521964 -1.09916,0.500531 -0.20878,-0.01072 -0.41485,-0.07322 -0.5938,-0.181292 -0.17896,-0.108071 -0.33038,-0.261591 -0.43498,-0.442599 -0.17059,-0.295202 -0.21128,-0.646623 -0.22428,-0.98732 -0.013,-0.340697 -0.002,-0.686238 -0.0841,-1.017261 -0.098,-0.397427 -0.32321,-0.750478 -0.55798,-1.085802 -0.23477,-0.335323 -0.4851,-0.665229 -0.644773,-1.042141 -0.208677,-0.492582 -0.250445,-1.054149 -0.116934,-1.572182 0.133511,-0.518033 0.441507,-0.989456 0.862277,-1.319813 0.42077,-0.330357 0.95182,-0.517686 1.48673,-0.524453 0.53492,-0.0068 1.07054,0.167068 1.49953,0.486675 z"
       id="path28-8"
       inkscape:path-effect="#path-effect29-2"
       inkscape:original-d="m 103.62147,44.193325 c 1.24387,-0.976591 1.21303,1.418627 1.81955,2.12794 0.60651,0.709316 -0.072,0.884073 -0.0925,1.38779 -0.0206,0.503714 -0.71959,0.97659 -1.07939,1.418627 -0.3598,0.442034 -0.48316,1.490586 -0.74016,2.2513 -0.25699,0.760711 -1.4289,-0.102799 -2.12794,-0.12336 -0.69903,-0.02056 -0.17475,-1.295267 -0.30839,-2.004581 -0.13364,-0.709313 -0.8224,-1.439188 -1.202753,-2.127943 -0.380357,-0.688753 2.487743,-1.953181 3.731603,-2.929773 z"
       transform="matrix(-0.3045747,-1.3540614,-1.209076,0.34109751,136.68675,152.35106)" />
    <path
       style="fill:none;fill-opacity:1;stroke:#ffffff;stroke-width:2.02045;stroke-linecap:round;stroke-linejoin:round;stroke-dasharray:none;stroke-dashoffset:0;stroke-opacity:1"
       d="m 103.65104,69.979542 c -1.12975,0.879571 -1.8913,2.217828 -2.07045,3.638351 -0.17915,1.420522 0.22629,2.905955 1.10229,4.038479 1.09294,1.413004 2.91083,2.232383 4.69336,2.11545 1.78254,-0.116934 3.4778,-1.166775 4.37679,-2.710449"
       id="path24-6-4-6-7"
       inkscape:path-effect="#path-effect24-4-1-3-3"
       inkscape:original-d="m 103.65104,69.979542 c 1.18132,2.427071 -3.31954,10.969008 -0.96816,7.67683 1.92061,-2.689071 7.1508,-1.099514 9.07015,-0.594999"
       transform="matrix(-0.34036902,0.15775351,-0.0089734,0.38594354,87.422538,-15.219549)"
       sodipodi:nodetypes="csc" />
    <path
       style="fill:none;fill-opacity:1;stroke:#ffffff;stroke-width:1.70718;stroke-linecap:round;stroke-linejoin:round;stroke-dasharray:none;stroke-dashoffset:0;stroke-opacity:1"
       d="m 101.23845,65.351088 c 2.56594,1.899376 5.35088,3.502662 8.2819,4.767889 4.4946,1.940174 9.33327,3.08015 14.22128,3.350495"
       id="path24-6-4-6-15"
       inkscape:path-effect="#path-effect24-4-1-3-2"
       inkscape:original-d="m 101.23845,65.351088 c 1.18132,2.427071 6.81492,2.650334 8.2819,4.767889 1.46699,2.117556 13.17526,4.945041 14.22128,3.350495"
       transform="matrix(-0.38296049,-0.29984073,0.09702088,-0.51527198,80.434603,123.6321)"
       sodipodi:nodetypes="csc" />
  </g>
</svg>
